<svg width="40" height="40" viewBox="0 0 40 40" fill="none" xmlns="http://www.w3.org/2000/svg">
<path fill-rule="evenodd" clip-rule="evenodd" d="M3.52417 22.5317C3.3975 21.7017 3.33417 20.85 3.33417 20C3.33417 10.81 10.8108 3.33335 20.0008 3.33335C29.1908 3.33335 36.6675 10.81 36.6675 20C36.6675 29.19 29.1908 36.6667 20.0008 36.6667C14.7875 36.6667 9.9725 34.295 6.78917 30.1634C6.38083 29.6334 6.48083 28.87 7.00917 28.4634C7.53917 28.0534 8.29917 28.155 8.71083 28.6834C11.4292 32.2184 15.5458 34.2434 20.0008 34.2434C27.8542 34.2434 34.2442 27.855 34.2442 20C34.2442 12.1467 27.8542 5.75835 20.0008 5.75835C12.1475 5.75835 5.7575 12.1467 5.7575 20C5.7575 20.7284 5.8125 21.4567 5.92083 22.165C6.02083 22.825 5.5675 23.4434 4.90583 23.545C4.24083 23.655 3.62583 23.1934 3.52417 22.5317ZM24.6578 20.0014C24.6578 20.333 24.5262 20.6514 24.2895 20.8864L18.4795 26.6714C17.9895 27.1597 17.1978 27.158 16.7112 26.668C16.2245 26.178 16.2245 25.388 16.7145 24.9014L21.6362 20.0014L16.7145 15.1014C16.2245 14.6147 16.2245 13.823 16.7112 13.333C17.1978 12.8447 17.9895 12.843 18.4795 13.3297L24.2895 19.1164C24.5262 19.3497 24.6578 19.668 24.6578 20.0014Z" fill="white"/>
</svg>
