<svg width="40" height="40" viewBox="0 0 40 40" fill="none" xmlns="http://www.w3.org/2000/svg">
<path fill-rule="evenodd" clip-rule="evenodd" d="M36.4775 17.4683C36.6041 18.2983 36.6675 19.15 36.6675 20C36.6675 29.19 29.1908 36.6667 20.0008 36.6667C10.8108 36.6667 3.33415 29.19 3.33415 20C3.33415 10.81 10.8108 3.33334 20.0008 3.33334C25.2141 3.33334 30.0291 5.70501 33.2125 9.83668C33.6208 10.3667 33.5208 11.13 32.9925 11.5367C32.4625 11.9467 31.7025 11.845 31.2908 11.3167C28.5725 7.78168 24.4558 5.75668 20.0008 5.75668C12.1475 5.75668 5.75748 12.145 5.75748 20C5.75748 27.8533 12.1475 34.2417 20.0008 34.2417C27.8541 34.2417 34.2441 27.8533 34.2441 20C34.2441 19.2717 34.1891 18.5433 34.0808 17.835C33.9808 17.175 34.4341 16.5567 35.0958 16.455C35.7608 16.345 36.3758 16.8067 36.4775 17.4683ZM15.3438 19.9987C15.3438 19.667 15.4755 19.3487 15.7121 19.1137L21.5221 13.3287C22.0121 12.8403 22.8038 12.842 23.2905 13.332C23.7771 13.822 23.7771 14.612 23.2871 15.0987L18.3655 19.9987L23.2871 24.8987C23.7771 25.3853 23.7771 26.177 23.2905 26.667C22.8038 27.1553 22.0121 27.157 21.5221 26.6703L15.7121 20.8837C15.4755 20.6503 15.3438 20.332 15.3438 19.9987Z" fill="white"/>
</svg>
