<svg width="512" height="512" xmlns="http://www.w3.org/2000/svg" enable-background="new 0 0 512 512">

 <g>
  <title>Layer 1</title>
  <g id="svg_1">
   <path fill="#ff0019" id="svg_2" d="m346.5,213.5c4.143,0 7.5,-3.358 7.5,-7.5l0,-25c0,-4.142 -3.357,-7.5 -7.5,-7.5s-7.5,3.358 -7.5,7.5l0,25c0,4.142 3.357,7.5 7.5,7.5z"/>
   <path fill="#ff0019" id="svg_3" d="m339,267c0,4.142 3.357,7.5 7.5,7.5s7.5,-3.358 7.5,-7.5l0,-23c0,-4.142 -3.357,-7.5 -7.5,-7.5s-7.5,3.358 -7.5,7.5l0,23z"/>
   <path fill="#ff0019" id="svg_4" d="m339,330c0,4.142 3.357,7.5 7.5,7.5s7.5,-3.358 7.5,-7.5l0,-24c0,-4.142 -3.357,-7.5 -7.5,-7.5s-7.5,3.358 -7.5,7.5l0,24z"/>
   <path fill="#ff0019" id="svg_5" d="m496.86,214.184c8.772,-1.59 15.14,-9.238 15.14,-18.186l0,-69.998c0,-15.164 -12.337,-27.5 -27.5,-27.5l-111,0c-10.926,0 -20.674,5.111 -27,13.061c-6.326,-7.95 -16.074,-13.061 -27,-13.061l-217.5,0c-4.143,0 -7.5,3.358 -7.5,7.5s3.357,7.5 7.5,7.5l217.5,0c10.752,0 19.5,8.748 19.5,19.5l0,11.988c0,4.142 3.357,7.5 7.5,7.5s7.5,-3.358 7.5,-7.5l0,-11.988c0,-10.752 8.748,-19.5 19.5,-19.5l111,0c6.893,0 12.5,5.607 12.5,12.5l0,69.998c0,1.69 -1.184,3.131 -2.815,3.426c-27.341,4.956 -47.185,28.75 -47.185,56.576s19.844,51.62 47.185,56.576c1.632,0.295 2.815,1.736 2.815,3.426l0,29.498c0,4.142 3.357,7.5 7.5,7.5s7.5,-3.358 7.5,-7.5l0,-29.498c0,-8.948 -6.367,-16.596 -15.14,-18.186c-20.199,-3.661 -34.86,-21.248 -34.86,-41.816s14.661,-38.155 34.86,-41.816z"/>
   <path fill="#ff0019" id="svg_6" d="m504.5,373c-4.143,0 -7.5,3.358 -7.5,7.5l0,5.5c0,6.893 -5.607,12.5 -12.5,12.5l-111,0c-10.752,0 -19.5,-8.748 -19.5,-19.5c0,-3.088 0,-9.976 0,-13c0,-4.142 -3.357,-7.5 -7.5,-7.5s-7.5,3.358 -7.5,7.5l0,13c0,10.752 -8.748,19.5 -19.5,19.5l-292,0c-6.893,0 -12.5,-5.607 -12.5,-12.5l0,-69.998c0,-1.689 1.184,-3.131 2.815,-3.426c27.341,-4.956 47.185,-28.75 47.185,-56.576s-19.844,-51.62 -47.185,-56.576c-1.632,-0.295 -2.815,-1.737 -2.815,-3.426l0,-69.998c0,-6.893 5.607,-12.5 12.5,-12.5l39.5,0c4.143,0 7.5,-3.358 7.5,-7.5s-3.357,-7.5 -7.5,-7.5l-39.5,0c-15.163,0 -27.5,12.336 -27.5,27.5l0,69.998c0,8.947 6.367,16.596 15.14,18.186c20.199,3.661 34.86,21.248 34.86,41.816s-14.661,38.155 -34.86,41.816c-8.773,1.591 -15.14,9.239 -15.14,18.186l0,69.998c0,15.164 12.337,27.5 27.5,27.5l292,0c10.926,0 20.674,-5.111 27,-13.061c6.326,7.95 16.074,13.061 27,13.061l111,0c15.163,0 27.5,-12.336 27.5,-27.5l0,-5.5c0,-4.142 -3.357,-7.5 -7.5,-7.5z"/>
   <path fill="#ff0019" id="svg_7" d="m108,256c0,4.142 3.357,7.5 7.5,7.5l169,0c4.143,0 7.5,-3.358 7.5,-7.5s-3.357,-7.5 -7.5,-7.5l-169,0c-4.143,0 -7.5,3.358 -7.5,7.5z"/>
   <path fill="#ff0019" id="svg_8" d="m115.5,323.5l81.5,0c4.143,0 7.5,-3.358 7.5,-7.5s-3.357,-7.5 -7.5,-7.5l-81.5,0c-4.143,0 -7.5,3.358 -7.5,7.5s3.357,7.5 7.5,7.5z"/>
   <path fill="#ff0019" id="svg_9" d="m248.5,203.5c4.143,0 7.5,-3.358 7.5,-7.5s-3.357,-7.5 -7.5,-7.5l-97,0c-4.143,0 -7.5,3.358 -7.5,7.5s3.357,7.5 7.5,7.5l97,0z"/>
   <path fill="#ff0019" id="svg_10" d="m284.5,308.5l-42.5,0c-4.143,0 -7.5,3.358 -7.5,7.5s3.357,7.5 7.5,7.5l42.5,0c4.143,0 7.5,-3.358 7.5,-7.5s-3.357,-7.5 -7.5,-7.5z"/>
  </g>
 </g>
</svg>