<?xml version="1.0" encoding="UTF-8" standalone="no"?>
<!DOCTYPE svg PUBLIC "-//W3C//DTD SVG 1.1//EN" "http://www.w3.org/Graphics/SVG/1.1/DTD/svg11.dtd">
<svg version="1.1" xmlns="http://www.w3.org/2000/svg" xmlns:xlink="http://www.w3.org/1999/xlink" preserveAspectRatio="xMidYMid meet" viewBox="0 0 640 640" width="640" height="640"><defs><path d="M172.86 267.38C175.19 265.05 176.52 261.83 176.52 258.55C176.52 255.25 175.19 252.03 172.86 249.71C170.54 247.38 167.31 246.05 164.02 246.05C160.72 246.05 157.51 247.38 155.19 249.71C152.86 252.03 151.52 255.25 151.52 258.55C151.52 261.83 152.86 265.05 155.19 267.38C157.51 269.71 160.74 271.05 164.02 271.05C167.31 271.05 170.54 269.71 172.86 267.38Z" id="a3UIBZCtCQ"></path><path d="M334.24 250.83C330.95 250.83 327.72 252.17 325.4 254.49C323.08 256.82 321.74 260.04 321.74 263.33C321.74 266.62 323.08 269.84 325.4 272.17C327.72 274.49 330.95 275.83 334.24 275.83C337.54 275.83 340.75 274.49 343.09 272.17C345.41 269.84 346.74 266.63 346.74 263.33C346.74 260.04 345.41 256.82 343.09 254.49C340.75 252.17 337.54 250.83 334.24 250.83Z" id="aKdJaGhjW"></path><path d="M386.84 228.42C389.16 226.09 390.49 222.87 390.49 219.58C390.49 216.29 389.16 213.07 386.84 210.74C384.51 208.42 381.29 207.08 378 207.08C374.7 207.08 371.47 208.42 369.15 210.74C366.83 213.07 365.49 216.29 365.49 219.58C365.49 222.87 366.83 226.09 369.15 228.42C371.47 230.74 374.7 232.08 378 232.08C381.29 232.08 384.51 230.74 386.84 228.42Z" id="b3REKim6ZI"></path><path d="M567.62 307.5C604.46 270.66 624.92 250.19 629.02 246.1C636.1 239.01 640 229.59 640 219.58C640 209.57 636.1 200.15 629.02 193.07C623.45 187.5 578.9 142.95 573.33 137.38C568.45 132.5 560.54 132.5 555.65 137.38C548.57 144.46 539.15 148.36 529.14 148.36C519.12 148.36 509.71 144.46 502.62 137.38C495.54 130.3 491.64 120.88 491.64 110.86C491.64 100.85 495.54 91.43 502.62 84.35C504.96 82 506.28 78.82 506.28 75.51C506.28 72.19 504.96 69.01 502.62 66.67C497.05 61.1 452.51 16.56 446.94 10.99C439.85 3.9 430.44 0 420.42 0C410.4 0 400.99 3.9 393.91 10.99C373.26 31.63 208.1 196.79 187.45 217.44C182.57 222.31 182.57 230.23 187.45 235.11C192.33 240 200.25 240 205.13 235.11C225.78 214.47 390.94 49.31 411.58 28.66C413.94 26.3 417.08 25 420.42 25C423.76 25 426.9 26.3 429.26 28.66C434.03 33.44 472.21 71.61 476.99 76.39C470.25 86.52 466.64 98.42 466.64 110.86C466.64 127.56 473.14 143.25 484.95 155.06C496.75 166.86 512.45 173.36 529.14 173.36C541.59 173.36 553.48 169.75 563.62 163.02C568.39 167.79 606.57 205.97 611.34 210.74C616.21 215.62 616.21 223.55 611.34 228.42C606.07 233.69 579.71 260.05 532.26 307.5L477.46 307.5C502.11 282.85 515.8 269.16 518.53 266.43C523.41 261.54 523.41 253.63 518.53 248.75C505.81 236.02 403.98 134.2 391.25 121.47C386.37 116.59 378.46 116.59 373.57 121.47C361.17 133.87 299.16 195.88 187.55 307.5C97.52 307.5 47.5 307.5 37.5 307.5C16.82 307.5 0 324.32 0 345C0 352.87 0 415.87 0 423.74C0 430.64 5.6 436.24 12.5 436.24C33.18 436.24 50 453.07 50 473.74C50 494.42 33.18 511.24 12.5 511.24C5.6 511.24 0 516.84 0 523.74C0 531.62 0 594.62 0 602.49C0 623.17 16.82 639.99 37.5 639.99C94 639.99 546 639.99 602.5 639.99C623.18 639.99 640 623.17 640 602.49C640 594.62 640 531.62 640 523.74C640 516.84 634.4 511.24 627.5 511.24C606.82 511.24 590 494.42 590 473.74C590 453.07 606.82 436.24 627.5 436.24C634.4 436.24 640 430.64 640 423.74C640 415.87 640 352.87 640 345C640 324.32 623.18 307.5 602.5 307.5C597.85 307.5 586.22 307.5 567.62 307.5ZM382.41 147.98L492.02 257.59L442.11 307.5L392.61 307.5C414.6 285.5 426.81 273.29 429.26 270.84C434.14 265.97 434.14 258.05 429.26 253.17C424.38 248.29 416.46 248.29 411.58 253.17C407.96 256.79 389.85 274.9 357.26 307.49L222.9 307.49L382.41 147.98ZM615 412.5C586.51 418.31 565 443.56 565 473.74C565 503.93 586.51 529.18 615 534.99C615 541.74 615 595.74 615 602.49C615 609.38 609.39 614.99 602.5 614.99C546 614.99 94 614.99 37.5 614.99C30.61 614.99 25 609.38 25 602.49C25 595.74 25 541.74 25 534.99C53.49 529.18 75 503.93 75 473.74C75 443.56 53.49 418.31 25 412.5C25 405.75 25 351.75 25 345C25 338.1 30.61 332.5 37.5 332.5C94 332.5 546 332.5 602.5 332.5C609.39 332.5 615 338.1 615 345C615 358.5 615 399 615 412.5Z" id="a11Z5GuFKI"></path><path d="M270.62 443.74C270.62 440.45 269.29 437.23 266.96 434.91C264.64 432.58 261.41 431.24 258.12 431.24C254.84 431.24 251.61 432.58 249.29 434.91C246.96 437.23 245.62 440.45 245.62 443.74C245.62 447.03 246.96 450.25 249.29 452.58C251.61 454.91 254.84 456.24 258.12 456.24C261.41 456.24 264.64 454.91 266.96 452.58C269.29 450.25 270.62 447.03 270.62 443.74Z" id="ayD65Vncv"></path><path d="M394.37 443.74C394.37 440.45 393.04 437.23 390.71 434.91C388.39 432.58 385.16 431.24 381.87 431.24C378.59 431.24 375.36 432.58 373.04 434.91C370.71 437.23 369.37 440.45 369.37 443.74C369.37 447.03 370.71 450.25 373.04 452.58C375.36 454.91 378.59 456.24 381.87 456.24C385.16 456.24 388.39 454.91 390.71 452.58C393.04 450.25 394.37 447.03 394.37 443.74Z" id="a3lZMv8KD0"></path><path d="M332.5 443.74C332.5 440.45 331.16 437.23 328.84 434.91C326.51 432.58 323.29 431.24 320 431.24C316.71 431.24 313.49 432.58 311.16 434.91C308.84 437.23 307.5 440.45 307.5 443.74C307.5 447.03 308.84 450.25 311.16 452.58C313.49 454.91 316.71 456.24 320 456.24C323.29 456.24 326.51 454.91 328.84 452.58C331.16 450.25 332.5 447.03 332.5 443.74Z" id="b1LTNYCD1o"></path><path d="M205.09 452.58C207.41 450.25 208.75 447.03 208.75 443.74C208.75 440.45 207.41 437.23 205.09 434.91C202.76 432.58 199.54 431.24 196.25 431.24C192.96 431.24 189.74 432.58 187.41 434.91C185.09 437.23 183.75 440.45 183.75 443.74C183.75 447.03 185.09 450.25 187.41 452.58C189.74 454.91 192.96 456.24 196.25 456.24C199.54 456.24 202.76 454.91 205.09 452.58Z" id="b1ieHCxIru"></path><path d="M456.25 443.74C456.25 440.45 454.91 437.23 452.59 434.91C450.26 432.58 447.04 431.24 443.75 431.24C440.46 431.24 437.24 432.58 434.91 434.91C432.59 437.23 431.25 440.45 431.25 443.74C431.25 447.03 432.59 450.25 434.91 452.58C437.24 454.91 440.46 456.24 443.75 456.24C447.04 456.24 450.26 454.91 452.59 452.58C454.91 450.25 456.25 447.03 456.25 443.74Z" id="b2kqtnjcX"></path><path d="M443.75 516.24C450.65 516.24 456.25 510.64 456.25 503.74C456.25 496.84 450.65 491.24 443.75 491.24C419 491.24 221 491.24 196.25 491.24C189.35 491.24 183.75 496.84 183.75 503.74C183.75 510.64 189.35 516.24 196.25 516.24C245.75 516.24 419 516.24 443.75 516.24Z" id="e1FVVV6FRP"></path><path d="M232.81 554.91C230.49 557.23 229.15 560.45 229.15 563.74C229.15 567.03 230.49 570.25 232.81 572.58C235.14 574.91 238.36 576.24 241.65 576.24C244.95 576.24 248.16 574.91 250.49 572.58C252.83 570.25 254.15 567.03 254.15 563.74C254.15 560.45 252.83 557.23 250.49 554.91C248.16 552.58 244.95 551.24 241.65 551.24C238.36 551.24 235.14 552.58 232.81 554.91Z" id="b1x5OzUWFC"></path><path d="M130 371.25C123.1 371.25 117.5 376.84 117.5 383.74C117.5 401.74 117.5 545.74 117.5 563.74C117.5 570.64 123.1 576.24 130 576.24C135.21 576.24 176.86 576.24 182.07 576.24C188.97 576.24 194.57 570.64 194.57 563.74C194.57 556.84 188.97 551.24 182.07 551.24C179.43 551.24 166.24 551.24 142.5 551.24L142.5 396.24L497.5 396.24L497.5 551.24C375.74 551.24 308.1 551.24 294.57 551.24C287.67 551.24 282.07 556.84 282.07 563.74C282.07 570.64 287.67 576.24 294.57 576.24C316.11 576.24 488.46 576.24 510 576.24C516.9 576.24 522.5 570.64 522.5 563.74C522.5 545.74 522.5 401.74 522.5 383.74C522.5 376.84 516.9 371.25 510 371.25C434 371.25 168 371.25 130 371.25Z" id="i4TE7ljcR"></path></defs><g><g><g><use xlink:href="#a3UIBZCtCQ" opacity="1" fill="#ff0019" fill-opacity="1"></use></g><g><use xlink:href="#aKdJaGhjW" opacity="1" fill="#ff0019" fill-opacity="1"></use></g><g><use xlink:href="#b3REKim6ZI" opacity="1" fill="#ff0019" fill-opacity="1"></use></g><g><use xlink:href="#a11Z5GuFKI" opacity="1" fill="#ff0019" fill-opacity="1"></use></g><g><use xlink:href="#ayD65Vncv" opacity="1" fill="#ff0019" fill-opacity="1"></use></g><g><use xlink:href="#a3lZMv8KD0" opacity="1" fill="#ff0019" fill-opacity="1"></use></g><g><use xlink:href="#b1LTNYCD1o" opacity="1" fill="#ff0019" fill-opacity="1"></use></g><g><use xlink:href="#b1ieHCxIru" opacity="1" fill="#ff0019" fill-opacity="1"></use></g><g><use xlink:href="#b2kqtnjcX" opacity="1" fill="#ff0019" fill-opacity="1"></use></g><g><use xlink:href="#e1FVVV6FRP" opacity="1" fill="#ff0019" fill-opacity="1"></use></g><g><use xlink:href="#b1x5OzUWFC" opacity="1" fill="#ff0019" fill-opacity="1"></use></g><g><use xlink:href="#i4TE7ljcR" opacity="1" fill="#ff0019" fill-opacity="1"></use></g></g></g></svg>