<?xml version="1.0" encoding="UTF-8" standalone="no"?>
<!DOCTYPE svg PUBLIC "-//W3C//DTD SVG 1.1//EN" "http://www.w3.org/Graphics/SVG/1.1/DTD/svg11.dtd">
<svg version="1.1" xmlns="http://www.w3.org/2000/svg" xmlns:xlink="http://www.w3.org/1999/xlink" preserveAspectRatio="xMidYMid meet" viewBox="0 0 640 640" width="640" height="640"><defs><path d="M319.8 344.85C320.07 344.85 320.33 344.85 320.6 344.85C320.99 344.85 321.52 344.85 321.92 344.85C360.75 344.19 392.16 330.54 415.36 304.43C466.38 246.91 457.9 148.3 456.97 138.89C453.66 68.25 420.26 34.46 392.69 18.69C372.15 6.89 348.16 0.53 321.39 0C321.3 0 320.56 0 320.46 0C320.33 0 320.07 0 319.93 0C319.85 0 319.22 0 319.14 0C304.43 0 275.54 2.39 247.84 18.16C220 33.93 186.08 67.72 182.76 138.89C181.83 148.3 173.35 246.91 224.38 304.43C247.44 330.54 278.85 344.19 317.68 344.85C318.34 344.85 319.01 344.85 319.8 344.85ZM218.28 141.15C222.65 46.12 290.11 35.92 319.01 35.92C319.06 35.92 319.48 35.92 319.54 35.92C319.8 35.92 320.2 35.92 320.6 35.92C356.38 36.71 417.21 51.29 421.32 141.15C421.32 141.54 421.32 141.94 421.45 142.21C421.59 143.14 430.86 233.26 388.72 280.7C372.02 299.52 349.75 308.8 320.46 309.07C320.2 309.07 320.07 309.07 319.8 309.07C319.8 309.07 319.8 309.07 319.8 309.07C319.54 309.07 319.4 309.07 319.14 309.07C289.98 308.8 267.58 299.52 251.02 280.7C209 233.52 218.02 143 218.15 142.21C218.15 141.81 218.28 141.41 218.28 141.15Z" id="e53R4n9Ah"></path><path d="M592.16 508C592.16 506.94 592.02 505.88 592.02 504.68C591.23 478.44 589.51 417.08 531.99 397.47C531.59 397.33 531.06 397.2 530.66 397.07C470.89 381.83 421.19 347.37 420.66 346.97C412.57 341.27 401.44 343.26 395.74 351.34C390.04 359.43 392.03 370.56 400.12 376.26C402.37 377.85 455.12 414.56 521.12 431.53C552 442.53 555.44 475.53 556.37 505.74C556.37 506.94 556.37 508 556.5 509.06C556.64 520.99 555.84 539.41 553.72 550.01C532.25 562.2 448.09 604.35 320.07 604.35C192.57 604.35 107.88 562.07 86.28 549.88C84.16 539.28 83.23 520.85 83.5 508.93C83.5 507.86 83.63 506.8 83.63 505.61C84.56 475.39 88 442.39 118.88 431.39C184.88 414.43 237.63 377.59 239.88 376.13C247.97 370.43 249.96 359.3 244.26 351.21C238.56 343.13 227.43 341.14 219.34 346.84C218.81 347.24 169.38 381.69 109.34 396.94C108.81 397.07 108.41 397.2 108.01 397.33C50.49 417.08 48.77 478.44 47.98 504.55C47.98 505.74 47.98 506.8 47.84 507.86C47.84 508 47.84 508.13 47.84 508.26C47.71 515.15 47.58 550.54 54.6 568.3C55.93 571.75 58.31 574.66 61.5 576.65C65.47 579.3 160.76 640 320.2 640C479.64 640 574.93 579.17 578.9 576.65C581.95 574.66 584.47 571.75 585.79 568.3C592.42 550.67 592.29 515.29 592.16 508.4C592.16 508.26 592.16 508.13 592.16 508Z" id="cSh2ZChL2"></path></defs><g><g><g><use xlink:href="#e53R4n9Ah" opacity="1" fill="#ff0019" fill-opacity="1"></use><g><use xlink:href="#e53R4n9Ah" opacity="1" fill-opacity="0" stroke="#000000" stroke-width="1" stroke-opacity="0"></use></g></g><g><use xlink:href="#cSh2ZChL2" opacity="1" fill="#ff0019" fill-opacity="1"></use><g><use xlink:href="#cSh2ZChL2" opacity="1" fill-opacity="0" stroke="#000000" stroke-width="1" stroke-opacity="0"></use></g></g></g></g></svg>