<svg width="54" height="54" viewBox="0 0 54 54" fill="none" xmlns="http://www.w3.org/2000/svg">
<g clip-path="url(#clip0)">
<path d="M18.296 28.9422L19.2318 28.6193L18.4165 28.0578C14.4632 25.3351 11.8685 20.7803 11.8685 15.6315C11.8685 7.31754 18.6333 0.552612 26.9474 0.552612C35.2615 0.552612 42.0263 7.31743 42.0263 15.6315C42.0263 23.9456 35.2614 30.7105 26.9474 30.7105C14.3011 30.7105 3.98276 40.864 3.71582 53.4474H0.504598C0.631201 46.5692 3.36839 40.1242 8.24641 35.2461C11.128 32.3645 14.5564 30.2327 18.296 28.9422ZM15.079 15.6316C15.079 22.1763 20.4027 27.5 26.9474 27.5C33.492 27.5 38.8157 22.1764 38.8157 15.6316C38.8157 9.08683 33.4921 3.76314 26.9474 3.76314C20.4027 3.76314 15.079 9.08694 15.079 15.6316Z" fill="#FF0019" stroke="#FF0019"/>
<path d="M44.6579 40.8948V41.3948H45.1579H53.5V44.6053H45.1579H44.6579V45.1053V53.4474H41.4474V45.1053V44.6053H40.9474H32.6052V41.3948H40.9474H41.4474V40.8948V32.5526H44.6579V40.8948Z" fill="#FF0019" stroke="#FF0019"/>
</g>
<defs>
<clipPath id="clip0">
<rect width="54" height="54" fill="white"/>
</clipPath>
</defs>
</svg>
