<svg width="72" height="72" viewBox="0 0 72 72" fill="none" xmlns="http://www.w3.org/2000/svg">
<path d="M71.9668 45.1748L71.1207 38.0866C71.0297 37.3247 70.3446 36.7764 69.5814 36.8543C66.7846 37.1405 64.2376 35.1014 63.9045 32.3097C63.5712 29.518 65.5665 26.9371 68.3522 26.5566C69.1125 26.4527 69.6492 25.7585 69.5582 24.9966L68.7122 17.9084C68.5659 16.6839 67.9517 15.5895 66.9825 14.8269C66.0132 14.0645 64.8051 13.7251 63.5806 13.8711L14.1871 19.7668C12.9749 19.9115 11.8908 20.5155 11.1293 21.4678H4.617C2.07113 21.4681 0 23.5392 0 26.0849V33.2235C0 33.9909 0.615234 34.6165 1.38234 34.6296C4.19358 34.6773 6.4807 37.0035 6.4807 39.815C6.4807 42.6265 4.19358 44.9527 1.38234 45.0005C0.615234 45.0133 0 45.6391 0 46.4064V53.5449C0 56.0907 2.07113 58.1618 4.617 58.1618H44.2356H54.3611C56.907 58.1618 58.9781 56.0907 58.9781 53.5448V51.3748L67.9296 50.3063C69.1542 50.1602 70.2485 49.546 71.0111 48.5766C71.7735 47.6073 72.1129 46.3992 71.9668 45.1748ZM56.1656 48.878V51.7105V53.5448C56.1656 54.5397 55.3562 55.3493 54.3611 55.3493H45.6418V52.9667V52.7127C45.6418 51.936 45.0122 51.3065 44.2356 51.3065C43.4589 51.3065 42.8293 51.936 42.8293 52.7127V53.3023V55.3491H25.6812H15.274H4.617C3.62208 55.3491 2.8125 54.5397 2.8125 53.5446V47.6699C4.39242 47.3674 5.84353 46.5948 6.99455 45.4258C8.47688 43.9204 9.2932 41.9278 9.2932 39.8149C9.2932 37.702 8.47688 35.7093 6.99455 34.2039C5.84339 33.0349 4.39242 32.2623 2.8125 31.9598V26.0849C2.8125 25.09 3.62194 24.2804 4.617 24.2804H10.1183H12.933H42.8295V41.4045C42.8295 42.1812 43.459 42.8107 44.2357 42.8107C45.0124 42.8107 45.642 42.1812 45.642 41.4045V24.2806H54.3613C55.3562 24.2806 56.1658 25.09 56.1658 26.0851V31.96C54.5858 32.2625 53.1347 33.035 51.9836 34.2041C50.5013 35.7095 49.6851 37.7021 49.6851 39.815C49.6851 41.9279 50.5014 43.9205 51.9836 45.4259C53.1347 46.595 54.5858 47.3675 56.1658 47.67V48.878H56.1656ZM68.8006 46.8378C68.5027 47.2165 68.0749 47.4567 67.5963 47.5138L58.9781 48.5425V46.4064C58.9781 45.639 58.3629 45.0133 57.5958 45.0003C54.7845 44.9526 52.4974 42.6264 52.4974 39.8147C52.4974 37.0031 54.7845 34.677 57.5958 34.6293C58.363 34.6162 58.9781 33.9906 58.9781 33.2232V26.0847C58.9781 23.5388 56.907 21.4677 54.3611 21.4677H44.2356H23.6666L63.9139 16.6639C64.3922 16.6067 64.8647 16.7394 65.2435 17.0374C65.6224 17.3354 65.8624 17.7632 65.9195 18.2417L66.6159 24.0753C65.0829 24.563 63.7336 25.5021 62.7292 26.7992C61.4358 28.4697 60.8614 30.545 61.1118 32.643C61.3623 34.741 62.4091 36.623 64.0592 37.942C65.3407 38.9665 66.8731 39.5615 68.4778 39.6747L69.1741 45.5082C69.2312 45.9868 69.0986 46.459 68.8006 46.8378Z" fill="#FF0019"/>
<path d="M45.5341 46.5203C45.4989 46.4359 45.4553 46.3543 45.4047 46.2784C45.3541 46.201 45.295 46.1293 45.2303 46.0646C45.1656 45.9999 45.0925 45.9409 45.0166 45.8903C44.9392 45.8382 44.8577 45.796 44.7733 45.7609C44.6889 45.7257 44.6003 45.6976 44.5103 45.6793C44.3289 45.6442 44.1419 45.6442 43.9605 45.6793C43.8705 45.6976 43.7833 45.7257 43.6975 45.7609C43.6131 45.796 43.5316 45.8382 43.4556 45.8903C43.3783 45.9409 43.3066 45.9999 43.2419 46.0646C43.1758 46.1293 43.1181 46.201 43.0661 46.2784C43.0155 46.3543 42.9719 46.4359 42.9367 46.5203C42.9016 46.606 42.8749 46.6946 42.8566 46.7846C42.8383 46.8746 42.8299 46.9674 42.8299 47.0589C42.8299 47.1503 42.8383 47.2431 42.8566 47.3331C42.8749 47.4231 42.9016 47.5117 42.9367 47.596C42.9719 47.6818 43.0155 47.7634 43.0661 47.8393C43.1181 47.9167 43.1758 47.9884 43.2419 48.0531C43.3066 48.1178 43.3783 48.1768 43.4556 48.2274C43.5316 48.2781 43.6131 48.3217 43.6975 48.3568C43.7833 48.392 43.8705 48.4201 43.9605 48.437C44.0519 48.4553 44.1433 48.4651 44.2361 48.4651C44.3275 48.4651 44.4189 48.4553 44.5103 48.437C44.6003 48.4201 44.6889 48.392 44.7733 48.3568C44.8577 48.3217 44.9392 48.2781 45.0166 48.2274C45.0925 48.1768 45.1656 48.1178 45.2303 48.0531C45.295 47.9884 45.3541 47.9167 45.4047 47.8393C45.4553 47.7634 45.4989 47.6818 45.5341 47.596C45.5692 47.5117 45.596 47.4231 45.6142 47.3331C45.6325 47.2431 45.6424 47.1503 45.6424 47.0589C45.6424 46.9674 45.6325 46.8746 45.6142 46.7846C45.596 46.6946 45.5692 46.606 45.5341 46.5203Z" fill="#FF0019"/>
<path d="M34.0113 36.1786L27.8339 35.281L25.0714 29.6834C24.8344 29.2035 24.3456 28.8996 23.8104 28.8996C23.2751 28.8996 22.7862 29.2035 22.5494 29.6834L20.1187 34.6085L19.7868 35.281L17.4485 35.6208L13.6096 36.1786C13.0798 36.2555 12.6398 36.6267 12.4743 37.1357C12.3088 37.6448 12.4469 38.2036 12.8302 38.5773L16.5503 42.2036L17.3 42.9344L16.8747 45.414L16.2447 49.0867C16.1542 49.6142 16.371 50.1475 16.8041 50.4622C17.2371 50.7768 17.8113 50.8184 18.2851 50.5692L23.8104 47.6645L29.3355 50.5692C29.5413 50.6775 29.766 50.7308 29.9897 50.7308C30.2812 50.7308 30.5715 50.6402 30.8164 50.4622C31.2496 50.1476 31.4664 49.6144 31.3759 49.0867L30.3206 42.9344L34.7906 38.5773C35.174 38.2036 35.3119 37.6448 35.1466 37.1357C34.9812 36.6267 34.541 36.2557 34.0113 36.1786ZM27.8282 41.4365C27.4967 41.7595 27.3454 42.2249 27.4237 42.6811L28.1222 46.7538L24.4647 44.831C24.0551 44.6156 23.5657 44.6156 23.1559 44.831L19.4984 46.7539L20.1969 42.6813C20.2329 42.4717 20.2182 42.2608 20.1621 42.0621C20.096 41.8281 19.9717 41.6113 19.7924 41.4366L18.0596 39.7475L16.8335 38.5524L18.2471 38.3468L20.9228 37.958C20.965 37.9518 21.006 37.9419 21.0471 37.9321C21.4515 37.8355 21.7956 37.5655 21.9817 37.1887L23.8105 33.4833L25.6392 37.1887C25.8441 37.6037 26.2399 37.8914 26.698 37.958L30.7872 38.5522L27.8282 41.4365Z" fill="#FF0019"/>
</svg>
