<svg width="54" height="54" viewBox="0 0 54 54" fill="none" xmlns="http://www.w3.org/2000/svg">
<g clip-path="url(#clip0)">
<path d="M43.8568 13.4665C43.8568 17.0925 48.4367 18.9862 48.6318 19.0651C48.8316 19.1428 49.0313 19.142 49.2308 19.0626C49.4235 18.9829 53.951 17.0678 53.9997 13.4772C54.0226 11.7907 52.7221 10.1961 50.9736 10.1961C50.2002 10.1961 49.4755 10.5128 48.9282 11.0546C48.3809 10.5128 47.6562 10.1961 46.8829 10.1961C45.2144 10.1961 43.8568 11.6632 43.8568 13.4665ZM48.1934 12.7583C48.4528 13.4095 49.4039 13.4095 49.6632 12.7583C49.9004 12.1628 50.4147 11.7781 50.9737 11.7781C51.8484 11.7781 52.4289 12.6454 52.4179 13.4558C52.3892 15.5712 49.8194 17.0208 48.927 17.4607C48.0332 17.0234 45.4389 15.5716 45.4389 13.4666C45.4389 12.5356 46.0868 11.7782 46.883 11.7782C47.4419 11.7781 47.9562 12.1629 48.1934 12.7583Z" fill="#FF0019"/>
<path d="M43.6542 6.19576C43.854 6.27349 44.0537 6.27265 44.2532 6.19334C44.3829 6.13965 47.4307 4.84998 47.4642 2.37885C47.4807 1.15763 46.515 0 45.2516 0C44.7732 0 44.3207 0.163688 43.9507 0.45109C43.5805 0.163688 43.1281 0 42.6498 0C41.4297 0 40.4371 1.06228 40.4371 2.36798C40.4371 4.86622 43.5227 6.14261 43.6542 6.19576ZM42.6498 1.58203C42.8867 1.58203 43.1089 1.75553 43.2158 2.02405C43.4752 2.67532 44.4263 2.67532 44.6856 2.02405C44.7926 1.75553 45.0148 1.58203 45.2517 1.58203C45.6615 1.65154 45.8717 1.90993 45.8823 2.35733C45.8685 3.37943 44.6756 4.21189 43.9527 4.58736C43.3461 4.27296 42.0192 3.46011 42.0192 2.36809C42.0192 1.942 42.3079 1.58203 42.6498 1.58203Z" fill="#FF0019"/>
<path d="M41.2812 25.3374C41.4811 25.4151 41.6807 25.4143 41.8803 25.3349C42.01 25.2813 45.0576 23.9915 45.0912 21.5203C45.1076 20.2992 44.1419 19.1416 42.8785 19.1416C42.4001 19.1416 41.9477 19.3053 41.5777 19.5927C41.2076 19.3052 40.7551 19.1416 40.2768 19.1416C39.0568 19.1416 38.0642 20.2039 38.0642 21.5096C38.0642 24.0077 41.1499 25.2842 41.2812 25.3374ZM40.2768 20.7236C40.5137 20.7236 40.7359 20.8971 40.8429 21.1657C41.1022 21.8169 42.0533 21.8169 42.3127 21.1657C42.4196 20.8971 42.6419 20.7236 42.8787 20.7236C43.2886 20.7931 43.4988 21.0515 43.5093 21.4989C43.4955 22.521 42.3027 23.3535 41.5798 23.7291C40.973 23.4147 39.6462 22.6018 39.6462 21.5097C39.6462 21.0835 39.9351 20.7236 40.2768 20.7236Z" fill="#FF0019"/>
<path d="M41.1361 27.9798C38.3505 27.9798 35.7692 28.8801 33.6609 30.4079L35.5075 15.9183C36.9077 15.8274 38.0194 14.6599 38.0194 13.237C38.0194 12.2022 37.431 11.3026 36.5716 10.8537C37.0509 10.0221 37.2865 9.07501 37.2439 8.09721C37.1255 5.3797 34.8755 3.23763 32.144 3.15442C31.9876 1.32474 30.3775 -0.0764077 28.4941 0.00343213C27.0883 0.0636548 25.9057 0.934932 25.3976 2.13612C24.8612 1.86474 24.2563 1.72869 23.6401 1.75527C22.1378 1.8196 20.8852 2.80774 20.447 4.14909C19.8648 4.02685 19.2347 4.00418 18.6439 4.08128C18.1195 2.72368 16.7474 1.79144 15.2112 1.85873C14.3805 1.89428 13.6116 2.20847 13.0119 2.74277C12.093 2.15151 11.0097 1.85705 9.89371 1.90493C8.48834 1.96505 7.18938 2.55683 6.23616 3.57102C5.40569 4.45463 4.9236 5.56638 4.84893 6.74805C4.61457 6.71103 4.37505 6.69732 4.13459 6.70766C3.20066 6.74763 2.33698 7.14124 1.7029 7.81592C1.06376 8.49588 0.733957 9.37918 0.774141 10.303C0.787535 10.6121 0.841957 10.9127 0.935719 11.2018C0.36334 11.6951 0 12.4244 0 13.2373C0 14.6601 1.11164 15.8275 2.51184 15.9185L6.19766 44.8392C6.39109 46.3576 7.69838 47.5025 9.23832 47.5025H18.4035V50.6879C18.4035 51.6692 19.2019 52.4676 20.1831 52.4676H35.0843C36.8892 53.445 38.9496 54.0002 41.1361 54.0002C42.3074 54.0002 43.4699 53.8402 44.5912 53.5246C45.5441 53.2564 45.159 51.7216 44.1627 52.0017C43.1808 52.2781 42.1626 52.4181 41.1361 52.4181C34.9152 52.4181 29.8542 47.2915 29.8542 40.99C29.8542 34.6884 34.9152 29.5618 41.1361 29.5618C47.3569 29.5618 52.418 34.6884 52.418 40.99C52.418 44.6928 50.6339 48.1825 47.6455 50.3249C46.841 50.9016 47.7262 52.2135 48.5673 51.6106C51.9691 49.1718 54 45.2015 54 40.99C54 33.8161 48.2293 27.9798 41.1361 27.9798ZM2.68745 14.3428C2.07795 14.3428 1.58203 13.8467 1.58203 13.2371C1.58203 12.6276 2.07795 12.1317 2.68745 12.1317H8.9641C9.40096 12.1317 9.75512 11.7775 9.75512 11.3407C9.75512 10.9038 9.40096 10.5497 8.9641 10.5497C8.9641 10.5497 2.4955 10.5551 2.40152 10.5651C2.02774 8.94697 3.92344 7.73988 5.30065 8.56412C5.87556 8.90816 6.60962 8.39516 6.4838 7.73693C6.27455 6.64048 6.62502 5.46703 7.38872 4.6546C8.05739 3.94311 8.97096 3.52799 9.96121 3.48559C10.9347 3.44351 11.8703 3.77004 12.5948 4.40401C13.0263 4.70438 13.4159 4.65735 13.7635 4.26268C14.1117 3.76582 14.6641 3.46565 15.2787 3.43939C16.2902 3.39436 17.1675 4.1241 17.2768 5.09662C17.3283 5.55436 17.8085 5.90525 18.2828 5.76814C19.097 5.53253 19.9847 5.57556 20.7719 5.89703C21.2795 6.10459 21.8541 5.72427 21.8619 5.17604C21.876 4.1878 22.6868 3.37949 23.7076 3.33582C24.3256 3.30956 24.9249 3.57661 25.3094 4.05069C25.7784 4.62887 26.7432 4.26542 26.7142 3.52155C26.6743 2.49851 27.5031 1.62934 28.5616 1.58399C29.6269 1.53821 30.5278 2.33777 30.5725 3.36588C30.579 3.51459 30.5653 3.66489 30.5307 3.82551C30.4162 4.35644 30.881 4.85373 31.4185 4.77484C31.5507 4.75543 31.6832 4.74288 31.8125 4.7374C33.8495 4.64954 35.577 6.18812 35.6632 8.16598C35.7011 9.03651 35.4183 9.8732 34.8646 10.5496H13.1791C12.7422 10.5496 12.388 10.9037 12.388 11.3406C12.388 11.7774 12.7422 12.1316 13.1791 12.1316H35.3318C35.9413 12.1316 36.4372 12.6276 36.4372 13.2372C36.4372 13.8467 35.9413 14.3426 35.3318 14.3426H2.68745V14.3428ZM25.9092 15.9248L25.2903 22.3995C24.5967 22.0407 23.8339 21.8496 23.0492 21.8496C21.4572 21.8496 19.9826 22.6406 19.0094 23.948C18.0361 22.6406 16.5615 21.8496 14.9695 21.8496C14.1679 21.8496 13.4083 22.0489 12.7294 22.404L12.1101 15.9248H25.9092ZM9.23832 45.9205C8.49266 45.9205 7.86016 45.3697 7.76704 44.6393L4.10748 15.9248H10.5209L11.251 23.5626C10.3319 24.5889 9.76388 25.992 9.76388 27.5379C9.76388 29.8721 10.8226 31.8235 12.2117 33.3802C12.2034 33.4402 12.201 33.5018 12.2071 33.5647L13.3881 45.9205H9.23832ZM23.0191 50.8856H20.1831C20.0742 50.8856 19.9855 50.7969 19.9855 50.6879V45.6452C19.9855 45.5363 20.0742 45.4476 20.1831 45.4476H23.0191V50.8856ZM23.2386 43.8656H20.1831C19.2019 43.8656 18.4035 44.664 18.4035 45.6452V45.9205H14.9772L13.9345 35.0127C16.178 36.8353 18.5255 37.8051 18.7128 37.8808C18.9127 37.9586 19.1123 37.9577 19.3119 37.8784C19.4982 37.8013 21.8463 36.8094 24.0895 34.9633L23.2386 43.8656ZM19.0055 36.2825C17.5539 35.6213 11.3458 32.5018 11.3458 27.5378C11.3458 25.2736 12.9714 23.4316 14.9695 23.4316C16.3912 23.4316 17.6886 24.3823 18.2745 25.8535C18.5338 26.5048 19.4849 26.5048 19.7443 25.8535C20.3303 24.3822 21.6275 23.4316 23.0492 23.4316C25.1954 23.4316 26.7005 25.5087 26.673 27.5272C26.6064 32.4489 20.4467 35.6101 19.0055 36.2825ZM27.6347 50.8856H24.6011V45.4476H27.6347V50.8856ZM32.7946 50.8856H29.2167V45.8815C30.0006 47.8281 31.2374 49.541 32.7946 50.8856ZM31.8702 31.944C31.8689 31.9552 31.8687 31.9663 31.8677 31.9773C29.6424 34.3173 28.2721 37.4946 28.2721 40.9899C28.2721 41.9778 28.3821 42.9401 28.5893 43.8655H24.8277L25.8394 33.2811C27.1923 31.7395 28.2241 29.8227 28.255 27.5485C28.2751 26.0565 27.7359 24.6113 26.7701 23.5448L27.4984 15.9247H33.9119L31.8702 31.944Z" fill="#FF0019"/>
<path d="M45.1101 40.9898C45.1101 38.7771 43.3274 36.9771 41.136 36.9771C38.9445 36.9771 37.1618 38.7771 37.1618 40.9898C37.1618 43.2024 38.9445 45.0024 41.136 45.0024C43.3274 45.0024 45.1101 43.2024 45.1101 40.9898ZM41.1361 43.4204C39.8171 43.4204 38.7439 42.3301 38.7439 40.9898C38.7439 39.6495 39.817 38.5591 41.1361 38.5591C42.4552 38.5591 43.5282 39.6495 43.5282 40.9898C43.5282 42.3301 42.4551 43.4204 41.1361 43.4204Z" fill="#FF0019"/>
<path d="M43.5207 33.2746C43.5207 31.94 42.4437 30.8541 41.1197 30.8541C39.7958 30.8541 38.7187 31.9399 38.7187 33.2746C38.7187 34.6093 39.7958 35.6951 41.1197 35.6951C42.4437 35.6951 43.5207 34.6093 43.5207 33.2746ZM40.3008 33.2746C40.3008 32.8123 40.6681 32.4361 41.1197 32.4361C41.5712 32.4361 41.9387 32.8122 41.9387 33.2746C41.9387 33.7369 41.5714 34.113 41.1197 34.113C40.6682 34.113 40.3008 33.7369 40.3008 33.2746Z" fill="#FF0019"/>
<path d="M46.5148 33.1021C45.8756 33.1021 45.263 33.361 44.8136 33.8144C43.883 34.7563 43.883 36.2889 44.8136 37.2308C45.7315 38.1597 47.2958 38.1619 48.2159 37.2308C49.1464 36.289 49.1464 34.7564 48.2159 33.8144C47.7619 33.3551 47.1578 33.1021 46.5148 33.1021ZM47.0905 36.1189C46.7067 36.4419 46.3228 36.4419 45.939 36.1189C45.6142 35.7901 45.6142 35.2552 45.939 34.9263C46.3228 34.6034 46.7066 34.6034 47.0904 34.9263C47.4153 35.2552 47.4153 35.7902 47.0905 36.1189Z" fill="#FF0019"/>
<path d="M46.3579 40.9734C46.3579 42.308 47.435 43.3939 48.7589 43.3939C50.0828 43.3939 51.1599 42.3081 51.1599 40.9734C51.1599 39.6387 50.0829 38.5529 48.7589 38.5529C47.435 38.5529 46.3579 39.6387 46.3579 40.9734ZM48.7589 40.1349C49.2105 40.1349 49.5779 40.511 49.5779 40.9734C49.5779 41.4357 49.2106 41.8118 48.7589 41.8118C48.3073 41.8118 47.94 41.4357 47.94 40.9734C47.94 40.511 48.3073 40.1349 48.7589 40.1349Z" fill="#FF0019"/>
<path d="M48.2389 44.7254C47.3211 43.7965 45.7567 43.7941 44.8367 44.7254C43.906 45.6673 43.906 47.1999 44.8367 48.1418C45.7669 49.0834 47.3086 49.0833 48.2389 48.1418C49.1695 47.1999 49.1695 45.6673 48.2389 44.7254ZM47.1135 47.0299C46.7297 47.3528 46.3458 47.3528 45.962 47.0299C45.6372 46.7011 45.6372 46.1662 45.962 45.8373C46.3458 45.5144 46.7296 45.5144 47.1134 45.8373C47.4384 46.1662 47.4384 46.7011 47.1135 47.0299Z" fill="#FF0019"/>
<path d="M38.7513 48.705C38.7513 50.0397 39.8284 51.1256 41.1523 51.1256C42.4763 51.1256 43.5533 50.0398 43.5533 48.705C43.5533 47.3703 42.4763 46.2845 41.1523 46.2845C39.8284 46.2845 38.7513 47.3703 38.7513 48.705ZM41.9713 48.705C41.9713 49.1673 41.6039 49.5435 41.1523 49.5435C40.7007 49.5435 40.3334 49.1674 40.3334 48.705C40.3334 48.2427 40.7007 47.8666 41.1523 47.8666C41.6039 47.8666 41.9713 48.2427 41.9713 48.705Z" fill="#FF0019"/>
<path d="M35.7574 48.8775C36.4005 48.8775 37.0047 48.6245 37.4584 48.1652C38.389 47.2232 38.389 45.6907 37.4584 44.7487C37.0046 44.2894 36.4004 44.0365 35.7574 44.0365C35.1183 44.038 34.5055 44.2942 34.0562 44.7488C33.1256 45.6907 33.1256 47.2232 34.0562 48.1652C34.5101 48.6245 35.1142 48.8775 35.7574 48.8775ZM35.1816 45.8607C35.5654 45.5377 35.9493 45.5377 36.3331 45.8607C36.658 46.1894 36.658 46.7244 36.3331 47.0532C36.04 47.3463 35.4689 47.3441 35.1817 47.0532C34.8568 46.7245 34.8568 46.1894 35.1816 45.8607Z" fill="#FF0019"/>
<path d="M31.1122 41.0063C31.1122 42.3409 32.1893 43.4268 33.5132 43.4268C34.8372 43.4268 35.9142 42.341 35.9142 41.0063C35.9142 39.6716 34.8372 38.5858 33.5132 38.5858C32.1893 38.5859 31.1122 39.6717 31.1122 41.0063ZM33.5131 40.1679C33.9647 40.1679 34.3321 40.544 34.3321 41.0064C34.3321 41.4687 33.9647 41.8448 33.5131 41.8448C33.0616 41.8448 32.6942 41.4687 32.6942 41.0064C32.6942 40.544 33.0616 40.1679 33.5131 40.1679Z" fill="#FF0019"/>
<path d="M35.7344 37.9666C36.3775 37.9666 36.9817 37.7135 37.4354 37.2542C38.3661 36.3123 38.3661 34.7797 37.4354 33.8378C36.9816 33.3785 36.3774 33.1255 35.7344 33.1255C35.0955 33.1269 34.4825 33.3832 34.0333 33.8378C33.1026 34.7797 33.1026 36.3123 34.0333 37.2542C34.4871 37.7135 35.0912 37.9666 35.7344 37.9666ZM35.1585 34.9497C35.5423 34.6268 35.9262 34.6268 36.31 34.9497C36.6349 35.2785 36.6349 35.8134 36.31 36.1423C35.9262 36.4652 35.5424 36.4652 35.1586 36.1423C34.8337 35.8134 34.8337 35.2785 35.1585 34.9497Z" fill="#FF0019"/>
</g>
<defs>
<clipPath id="clip0">
<rect width="54" height="54" fill="white"/>
</clipPath>
</defs>
</svg>
